<svg xmlns="http://www.w3.org/2000/svg" viewBox="0 0 512 512">
  <defs>
    <linearGradient id="bg" x1="0%" x2="100%" y1="0%" y2="100%">
      <stop offset="0%" stop-color="#16181d"/>
      <stop offset="100%" stop-color="#262c38"/>
    </linearGradient>
    <linearGradient id="ring" x1="0%" x2="100%" y1="0%" y2="100%">
      <stop offset="0%" stop-color="#3b82f6"/>
      <stop offset="50%" stop-color="#a855f7"/>
      <stop offset="100%" stop-color="#14b8a6"/>
    </linearGradient>
  </defs>
  <rect width="512" height="512" rx="128" fill="url(#bg)"/>
  <rect x="28" y="28" width="456" height="456" rx="112" fill="none" stroke="url(#ring)" stroke-width="18"/>
  <g transform="translate(116 86)">
    <path fill="#fbbc04" d="M140 18c-56.3 0-102 45.7-102 102 0 38.7 21.1 72.4 52.5 90l9 54h80.9l9-54c31.4-17.6 52.6-51.3 52.6-90 0-56.3-45.7-102-102-102Zm29.2 185.7-4.9 29.3h-48.6l-4.9-29.3c-30-17.8-50-49.8-50-86.7 0-55.2 44.8-100 100-100s100 44.8 100 100c0 36.9-20 68.9-50 86.7Z"/>
    <path fill="#fbbc04" d="M113 283h54v21h-54zm30-175h28v51h-28zm0 74h28v28h-28z"/>
    <path fill="#fbbc04" d="M157 0h12v27h-12zM52.5 43.1l8.5-8.5L80 53.6l-8.5 8.5zM7 113h27v12H7zm45.5 121.8-8.5-8.5L63 207.4l8.5 8.5zM249 113h27v12h-27zm-35.5-59.4 19-19 8.5 8.5-19 19z"/>
  </g>
</svg>
